<?xml version="1.0" encoding="UTF-8"?>
<svg version="1.1" viewBox="0 0 1024 1024" width="1024" height="1024" xmlns="http://www.w3.org/2000/svg">
<path transform="translate(0)" d="m0 0h1024v1024h-1024z" fill="#DBE7D4"/>
<path transform="translate(488,164)" d="m0 0h50l20 2 18 3 30 7 24 8 19 8 20 10 18 11 15 10 14 11 15 13 19 19 9 11 10 13 14 20 8 14 10 19 7 15 7 17 6 19 5 21 4 22 3 27v40l-3 25-4 21-7 24-5 15-6 14-11 23-11 19-13 18-9 12-13 15-25 25-11 9-13 10-17 11-18 10-16 8-23 10-27 9-22 5-33 5-17 1h-34l-14-1-34-5-15-3-29-9-20-8-26-13-12-7-21-14-14-11-10-9-8-7-17-17-7-8-8-10-10-14-12-19-10-17-8-16-8-20-7-20-7-28-4-22-2-25 1-29 3-27 6-29 6-22 5-12 5-13 8-17 6-11 11-19 6-9 1-2h2l2-5 2-4h2l2-5 11-13 7-8 9-10 17-17 15-11 14-10 11-7 22-12 9-4 23-10 28-9 27-6 18-3z" fill="#9BDEB7"/>
<path transform="translate(504,200)" d="m0 0h20l28 2 17 3 22 5 27 9 25 11 8 4 19 12 16 12 11 9 12 11 7 7 7 8 13 15 13 19 5 15 6 8 8 11 6 12 6 16 6 19 6 29 2 23v41l-2 19-6 28-8 26-9 21-11 21-10 16-10 14-13 16-11 12-14 14-10 8-19 14-13 8-23 12-27 11-30 9-10 2-38 4h-32l-34-4-26-6-22-6-11-5-16-7-23-12-18-12-16-12-12-11-7-6-7-8-9-10-13-17-12-18-10-17-10-21-8-21-7-26-4-25-1-12v-44l4-31 6-25 8-24 8-15 5-7 6-1 6 6-1 11-3 26v30l2 16 4 17 7 20 8 17 8 15 11 16 8 10 11 13 9 9 11 9 8 6 11 7 10 6 20 11 21 8 17 5 27 4 38 1 1 76 3 8 3 3h8l3-2 1-18h1l1-68h31l26-3 14-3 23-7 19-8 19-10 20-14 10-8 17-17 11-14 12-18 8-13 10-24 6-18 4-19 2-23v-18l-3-24-4-21-4-9-2-13-5-2-18-5-15-3h-34l-30 5-18 5-24 10-16 8-19 13-10 9-3 1-2 4-10 10-9 13-9 16-5 12-2 5h-1l-4-16-8-13-10-14-13-15-9-9-14-10-14-8-16-8-17-8-26-7-16-3h-35l-30 5-18 5h-4l1-6 2-3h2l2-5 7-11 10-12 7-8 15-15 8-7 17-13 17-11 23-12 20-9 21-7 28-7 21-3z" fill="#F5F6EA"/>
<path transform="translate(504,200)" d="m0 0h20l28 2 17 3 22 5 27 9 25 11 8 4 19 12 16 12 11 9 12 11 7 7 7 8 13 15 13 19 5 15 6 8 7 10-1 2h-7l-3-2h-4l-2 2-3-12-3-6-2-13-5-2-18-5-15-3h-34l-30 5-18 5-24 10-16 8-19 13-10 9-3 1-2 4-10 10-9 13-9 16-5 12-2 5h-1l-4-16-8-13-10-14-13-15-9-9-14-10-14-8-16-8-17-8-26-7-16-3h-35l-30 5-18 5h-4l1-6 2-3h2l2-5 7-11 10-12 7-8 15-15 8-7 17-13 17-11 23-12 20-9 21-7 28-7 21-3z" fill="#F5F6EA"/>
<path transform="translate(698,362)" d="m0 0h7l5 4 2 5-1 5-6 8-13 12-14 15-25 25-7 8-15 15v1l75 1 6 5 1 8-7 6-5 2h-29l-46-1-15-1-8 7-43 43-9 11h-2l-2 4-5 4-9 11-6 7-2 1-1 4-1 38v79h-1l-1 12-4 3h-8l-5-5-1-3-1-95-1-33-8-7-14-15-11-12-38-38-7-8-6-7-91 1-7-2-5-5-1-2v-6l7-6 70-1 7 1-28-28-7-8-9-9-7-8-27-27-3-5v-7l4-5 8-1 7 4 10 10v2h2l7 8 30 30 7 8 9 9 5 6 3 1-1-45v-20l1-7 5-5h8l5 4 2 4v78l-3 6h-2l8 10 13 13 7 8 10 10v2l4 2 14 14 7 8 10 12 6 7 1-60 1-10 7-2 7 1 4 1 1 6 1 62 5-5 15-16 13-13 7-8 15-15 7-8 13-13v-93l5-5h8l6 6 1 18v53l12-11 12-13 31-31 7-8 10-11z" fill="#1F7050"/>
<path transform="translate(468,870)" d="m0 0h79l48 1 47 5 17 2 3 3-5 6v2l-3 1-1 6-7 2-2 3-9 3v2l-24 2-33 3-50 2h-25l-36-1-23-1-27-2-12-2-15-1-6-4-8-3-2-1h-9l-2-4-5-2 1-7h2v-2l7-4 10-1 3-1 9-1 14-2z" fill="#B3D9BE"/>
<path transform="translate(508,249)" d="m0 0h15l13 4 12 7 8 8 6 12 3 12v11l-3 12-5 12-8 10-10 7-9 4-10 2h-14l-11-3-12-6-8-7-7-10-4-10-2-10v-9l3-13 6-12 8-9 11-7 10-4z" fill="#9BDEB7"/>
<path transform="translate(698,362)" d="m0 0h7l5 4 2 5-1 5-6 8-13 12-14 15-25 25-7 8-15 15v1l75 1 6 5 1 8-7 6-5 2h-29l-46-1-15-1-8 7-37 37-1-2-5-1v-3l-4 1-2-6 2-6 9-10 14-14 7-8 13-13v-93l5-5h8l6 6 1 18v53l12-11 12-13 31-31 7-8 10-11z" fill="#1F7050"/>
<path transform="translate(323,363)" d="m0 0 8 1 10 9 4 4v2h2l7 8 30 30 7 8 7 7-2 1-2-1-1 4 5 8 1 8-1 3-2 1 3 3 3 1v3l4 1 2 4 4 2 5 4 5 9h2v2h5l4 5v6l6 5 4 5 12 12-1 2-24-24-7-8-6-7-91 1-7-2-5-5-1-2v-6l7-6 70-1 7 1-28-28-7-8-9-9-7-8-27-27-3-5v-7l4-5z" fill="#165F42"/>
<path transform="translate(364,878)" d="m0 0h8l-4 2-5 3h-2v2h-2v7l4 2v2l4 1h7l7 3 6 3 5 2 15 1 10 2 30 2 23 1 39 1h26l43-2 55-5 2 1v-2l4-3h5l2-5 4 1v-6h1v5h2v-6l2-2 2 1-1-3 5-5v-2l5-1 9 4h3l3 3 3 1-1 7-1 3-10 3v2h-3l-3 6h-8l-5 2h2l-1 2-10-1-3-2-4 1-4-1 1 3h-5v-2h-2l-1 3-3-3v2l-4 2v-3h-2v2l-4-1-4 2-3-2 1 4-8-2-1 3-1-3h-2v2l-5-2-1 2h-9l-3-2h-16v2h-2v-2l-5 1-3 5-5-2-4-2-4 1-1 2-3-1 1-2h-2v2h-4l-3-1-1 2h-7v-2h-14l-2 2-5 1-2-4h-3l-3 3h-2l-1 3-5-1-1-2h-6l-1 2-7-1-6-1v-2l-3 1-2-3-1 2-4-2v-2h-2l-2 4-5 1-1-3-2 3-1-3-7 1 1 3-2 1-5-1 1-2-6 2v-3l-5-1-2-1 1 3h-2l1 3-3-1h-2l-4 1-4-2 1-2-3 1-3-1-1 2-2-1-1 2v-4l-6-4-3 1v2h-2v-2l-4-1-1 3v-5h-4l-1 3-2-4h-12l-6-1-2-5h2l-1-2h-5l-3-6-2-2v-5l13-5z" fill="#C9E1C9"/>
<path transform="translate(413,364)" d="m0 0h8l5 4 2 4v78l-3 6h-2l8 10 13 13 3 5-4-2-16-17-5-6-5-1-5-7-4-4-2-5h2l-1-46v-20l1-7z" fill="#165F42"/>
<path transform="translate(627,461)" d="m0 0h79l6 5 1 8-7 6-5 2h-29l-46-1-15-1-3 1v-2l13-5 4-1 1-3h2z" fill="#165F42"/>
<path transform="translate(604,364)" d="m0 0h8l6 6 1 18-1 47-3 4-13 4-1-2-2 2v-74z" fill="#165F42"/>
<path transform="translate(700,362)" d="m0 0 7 1 4 5 1 6-6 9-15 14-5 6h-2v-7l4-6 2-4-1-3-3-1 4-3h2v-2h2l1-9-2-1 5-2 3-1-2-1z" fill="#165F42"/>
<path transform="translate(587,496)" d="m0 0h6l-6 7-21 21-1-2-5-1v-3l-4 1-2-6 2-6 3-4h4l2 4 5 2 5-5 3-4 4 1z" fill="#165F42"/>
<path transform="translate(747,326)" d="m0 0 2 1 5 15 6 8 7 10-1 2h-7l-3-2h-4l-2 2-3-12-3-6-2-13-3-1 1-2 5 2z" fill="#DAE6D3"/>
<path transform="translate(562,525)" d="m0 0 2 1-10 11-3 4h-2l-2 4-5 4-1 2h-2v-2l-3-2-1-10h2l2-9 1-1h8l4 4 3-1 2-4z" fill="#165F42"/>
<path transform="translate(324,387)" d="m0 0 4 2 7 7v2l4 2 14 14 7 8 9 9 7 8 16 16 5 4v2h-17l-27-1v-1h35l-6-10-6-4-4-6-2-4-4-2-5-5v-2h-2v-3l-4-2v-2h-2v-2h-2v-2h-2v-2l-3-1-7-8-8-8v-2l-3-1z" fill="#D9E7D3"/>
<path transform="translate(267,353)" d="m0 0 4 1 4 5-1 11-1 6h-1v-6l-9 1-8-3 2-6 6-8z" fill="#D9E6D3"/>
<path transform="translate(459,524)" d="m0 0 4 2 5 4h5l4 5 2 1v2l2 1 1 7 5 4 4 4 4 1v2l3 1 3 9-4-2-8-8-7-8-15-16-8-8z" fill="#166043"/>
<path transform="translate(324,387)" d="m0 0 4 2 7 7v2l4 2 14 14 7 8 9 9 3 5-5-2-5-4-1-4h-2v-3l-4-2v-2h-2v-2h-2v-2h-2v-2l-3-1-7-8-8-8v-2l-3-1z" fill="#CDE4CD"/>
<path transform="translate(406,371)" d="m0 0h1l1 25v45l-4-1-4-4 1-2h5z" fill="#C9E6CD"/>
<path transform="translate(323,363)" d="m0 0 8 1 4 4 4 6-1 2-18-6-2-1 1-4z" fill="#1F7050"/>
<path transform="translate(423,483)" d="m0 0 1 2h5l4 5v6l6 5 4 5 12 12-1 2-24-24-7-8-2-3h2z" fill="#176143"/>
<path transform="translate(463,501)" d="m0 0 4 2 12 12 7 8 10 12 6 7-1 2-7-7-7-9-11-12-7-8-6-5z" fill="#166043"/>
<path transform="translate(595,869)" d="m0 0 10 1v2l5-1 2 1 1-2h4l2 1v2h6l4-1h2l-1 3h-9l-26-3-2-2z" fill="#C9E1C9"/>
<path transform="translate(653,407)" d="m0 0v3l-7 8-7 6-7 8-10 10-3 1 2-4 8-7 15-16z" fill="#166043"/>
<path transform="translate(324,387)" d="m0 0 4 2 7 7v2l4 2 11 11-1 2-3-1-7-8-8-8v-2l-3-1z" fill="#C6E4CA"/>
<path transform="translate(388,453)" d="m0 0 4 2 5 4v2h-17l-27-1v-1h39z" fill="#D9E6D3"/>
<path transform="translate(554,509)" d="m0 0v3l-13 13-7 9h-2l-2 4-5 4 2-4 12-14z" fill="#186245"/>
<path transform="translate(651,431)" d="m0 0 1 2 4-1-6 8-13 13-2-1 3-4h2l2-4h2v-2h2v-2h2z" fill="#186346"/>
<path transform="translate(334,368)" d="m0 0 4 2 7 7v2h2l4 5-1 3-3-1-3-5-4-2-4-8z" fill="#1A6648"/>
<path transform="translate(424,459)" d="m0 0 20 20 3 5-4-2-16-17-3-4z" fill="#176143"/>
<path transform="translate(795,328)" d="m0 0 3 1 3 8 3 5-1 2-3-1-5-10z" fill="#EEF2E4"/>
<path transform="translate(502,531)" d="m0 0h1v12l-5-4-1-5z" fill="#D6E6D2"/>
<path transform="translate(347,397)" d="m0 0h2v3h4v2l4 2-1 3-3-2-1 2v-2l-4-1v-2l-2-1z" fill="#207151"/>
<path transform="translate(383,447)" d="m0 0 6 5 2 4 1 3h-4l-5-9z" fill="#D2E6D0"/>
<path transform="translate(510,700)" d="m0 0h10v2l-3 2h-8l-1-2 2-1z" fill="#166042"/>
<path transform="translate(521,683)" d="m0 0h1l2 18h-3z" fill="#86CBA5"/>
<path transform="translate(388,453)" d="m0 0 4 2 5 4v2h-7l-2-2h4z" fill="#D5EDD7"/>
<path transform="translate(349,412)" d="m0 0 4 2 7 8-1 3v-2l-4-2v-2h-2v-2h-2v-2h-2z" fill="#D5E7D2"/>
<path transform="translate(698,362)" d="m0 0 6 2v1l-9 2v-3zm-5 4m-2 1 2 1-4 4v-3z" fill="#1B694A"/>
<path transform="translate(463,501)" d="m0 0 4 2 10 10h-3l-11-10z" fill="#1A6648"/>
<path transform="translate(651,431)" d="m0 0 1 2 4-1-6 8-2 1 1-6z" fill="#176144"/>
</svg>
